<?xml version="1.0" standalone="no"?>
<!DOCTYPE svg PUBLIC "-//W3C//DTD SVG 20010904//EN"
 "http://www.w3.org/TR/2001/REC-SVG-20010904/DTD/svg10.dtd">
<svg version="1.0" xmlns="http://www.w3.org/2000/svg"
 width="300.000000pt" height="42.000000pt" viewBox="0 0 300.000000 42.000000"
 preserveAspectRatio="xMidYMid meet">
<metadata>
Created by potrace 1.10, written by Peter Selinger 2001-2011
</metadata>
<g transform="translate(0.000000,42.000000) scale(0.100000,-0.100000)"
fill="#000000" stroke="none">
<path d="M12 408 c-8 -8 -12 -58 -12 -159 0 -125 2 -148 16 -153 47 -18 89 5
96 53 2 17 15 28 53 42 28 10 51 19 53 19 1 0 2 -13 2 -29 0 -67 37 -103 89
-86 23 7 31 28 35 86 4 45 9 54 29 46 9 -3 14 -23 15 -53 3 -74 48 -106 98
-70 17 13 21 12 38 -2 29 -27 118 -23 149 6 l25 24 41 -27 c31 -21 47 -26 68
-20 16 4 48 7 73 6 25 0 55 4 68 11 18 9 28 9 42 0 32 -20 57 -14 84 21 17 21
26 26 26 16 0 -21 32 -49 55 -49 10 0 29 9 41 21 l22 21 32 -24 c23 -16 46
-23 82 -24 42 0 53 -5 72 -28 18 -24 27 -27 47 -20 13 4 49 7 79 5 97 -4 166
44 126 88 -17 19 -22 91 -7 106 6 6 12 24 14 40 4 31 19 36 71 24 24 -5 55 35
63 84 5 30 3 37 -11 37 -10 0 -15 -4 -12 -8 6 -11 -16 -89 -27 -91 -4 -1 -24
3 -45 9 -27 8 -49 7 -86 -3 l-48 -13 27 -12 c24 -11 27 -11 22 3 -4 8 -2 15 2
15 10 0 21 -24 21 -45 0 -8 -7 -21 -16 -30 -12 -12 -15 -27 -11 -56 4 -34 2
-39 -14 -39 -15 0 -19 7 -19 35 0 44 -23 47 -45 6 -17 -34 -31 -45 -45 -36 -6
4 -3 20 9 43 11 21 17 49 14 63 -3 19 5 34 36 67 23 23 41 46 41 51 0 6 10 17
22 25 l22 16 -27 0 c-15 0 -27 -4 -27 -8 0 -4 -22 -34 -50 -67 -37 -44 -48
-64 -44 -81 6 -22 -20 -84 -35 -84 -4 0 -6 21 -4 48 4 42 1 51 -29 85 -27 32
-41 40 -78 44 -38 4 -51 0 -85 -25 l-40 -29 -34 26 c-31 23 -42 26 -105 23
-39 -1 -75 -7 -80 -12 -19 -19 -37 -11 -30 14 3 14 3 34 -1 46 -6 18 -13 21
-53 18 -43 -3 -48 -6 -58 -36 l-10 -33 -38 26 c-48 32 -61 32 -98 -5 -28 -29
-33 -30 -65 -19 -40 13 -89 6 -114 -17 -23 -21 -41 -10 -30 19 5 13 4 32 -2
45 -8 18 -18 22 -52 22 -37 0 -44 -3 -55 -29 -12 -31 -40 -41 -110 -41 -25 0
-43 7 -56 21 -10 12 -31 27 -46 35 -33 17 -149 19 -166 2z m466 -30 c2 -9 -5
-21 -16 -27 -26 -14 -56 7 -46 32 9 23 57 19 62 -5z m460 -4 c4 -27 -26 -40
-46 -20 -21 20 -8 48 20 44 14 -2 24 -11 26 -24z m-820 6 c43 0 58 -5 77 -25
56 -55 15 -135 -70 -135 l-45 0 0 -50 c0 -49 -1 -50 -30 -50 l-30 0 0 136 0
136 23 -6 c12 -3 46 -6 75 -6z m662 -35 c0 -21 5 -25 30 -25 23 0 30 -4 30
-20 0 -16 -7 -20 -30 -20 l-31 0 3 -57 c3 -54 5 -58 29 -61 16 -2 29 -11 32
-22 9 -36 -81 -33 -105 4 -4 6 -8 39 -8 74 0 48 -3 62 -15 62 -8 0 -15 9 -15
20 0 11 7 20 15 20 9 0 15 9 15 25 0 20 5 25 25 25 20 0 25 -5 25 -25z m-395
-25 c12 -19 -6 -50 -29 -50 -36 0 -46 -20 -46 -87 0 -61 -1 -63 -25 -63 -25 0
-25 0 -25 100 0 100 0 100 25 100 14 0 25 -5 25 -11 0 -5 10 -3 22 5 26 18 44
20 53 6z m272 -12 c12 -10 12 -13 0 -26 -12 -11 -19 -12 -37 -2 -12 6 -28 9
-36 6 -27 -10 -14 -33 26 -45 52 -15 77 -52 62 -87 -22 -47 -109 -56 -146 -15
-14 15 -14 20 -2 30 10 9 20 8 44 -6 25 -15 32 -15 46 -4 21 18 8 32 -42 46
-42 12 -64 53 -46 83 25 40 94 51 131 20z m497 1 c24 -19 26 -26 26 -105 0
-83 0 -84 -25 -84 -23 0 -24 3 -27 78 -3 73 -4 77 -27 80 -36 6 -51 -22 -51
-95 0 -61 -1 -63 -25 -63 -25 0 -25 0 -25 100 0 100 0 100 25 100 17 0 25 -6
25 -17 0 -11 3 -14 8 -7 9 13 43 33 58 34 6 0 23 -9 38 -21z m244 -14 c12 -14
22 -39 22 -56 l0 -29 -70 0 c-51 0 -70 -4 -70 -13 0 -33 62 -51 87 -26 8 8 20
6 45 -7 18 -11 34 -22 36 -25 2 -4 22 -4 46 -2 30 4 51 0 68 -11 16 -11 35
-14 55 -10 52 10 49 -14 -4 -37 -47 -20 -99 -21 -146 -3 -12 4 -17 2 -15 -7 2
-7 -5 -15 -14 -17 -15 -3 -18 4 -18 48 l0 52 -25 -16 c-28 -19 -103 -21 -126
-3 -57 43 -50 148 12 184 34 19 89 9 117 -22z m-928 -77 l0 -103 -25 0 -25 0
0 103 0 102 25 0 25 0 0 -102z m470 2 l0 -100 -27 0 -28 0 0 100 0 100 28 0
27 0 0 -100z m-90 -2 c0 -30 -1 -31 -16 -16 -9 9 -14 24 -11 32 11 27 27 17
27 -16z"/>
<path d="M80 300 l0 -41 38 3 c35 3 37 5 37 38 0 33 -2 35 -37 38 l-38 3 0
-41z"/>
<path d="M1297 272 c-25 -28 -21 -32 28 -32 48 0 55 9 29 34 -20 21 -37 20
-57 -2z"/>
<path d="M1468 123 c-35 -9 -17 -30 35 -42 48 -10 58 -10 98 9 24 11 33 17 19
13 -66 -17 -90 -20 -90 -12 0 5 10 9 23 9 22 1 22 1 -3 15 -25 14 -50 17 -82
8z"/>
<path d="M1685 409 c17 -5 38 -7 48 -5 17 4 18 0 13 -32 -5 -35 -5 -35 5 -9
17 44 6 57 -48 56 -45 -1 -46 -1 -18 -10z"/>
<path d="M1834 399 c-15 -17 -16 -23 -6 -40 17 -27 18 -168 2 -199 -11 -21
-10 -26 11 -43 18 -15 32 -17 64 -12 55 8 69 24 55 60 -6 15 -9 29 -8 30 7 6
68 35 73 35 9 0 5 -38 -7 -66 -11 -25 -10 -29 20 -54 18 -14 32 -35 32 -46 0
-11 6 -29 14 -40 12 -17 27 -20 123 -23 120 -3 121 -2 137 72 9 40 26 33 26
-12 0 -21 6 -44 14 -50 9 -8 64 -11 172 -9 l159 3 12 27 c9 18 10 34 4 50 -10
26 -12 26 97 29 9 0 36 -3 58 -6 35 -6 45 -4 63 14 20 20 20 23 6 52 -14 27
-18 81 -5 70 3 -2 15 1 28 8 17 9 22 20 22 52 0 50 -20 59 -114 49 -38 -4 -82
-4 -99 1 -21 6 -40 4 -66 -8 -53 -24 -56 -23 -56 27 0 45 0 45 -37 48 -37 3
-38 2 -44 -38 -8 -49 -23 -58 -58 -35 -19 13 -32 15 -53 8 -16 -5 -39 -7 -52
-4 -13 4 -52 4 -87 1 -57 -5 -63 -4 -58 12 9 28 -14 58 -44 58 -34 0 -52 -16
-52 -46 0 -20 -4 -21 -71 -19 -58 1 -74 5 -88 22 -25 32 -55 43 -114 43 -42 0
-58 -5 -73 -21z m413 -15 c6 -16 -15 -37 -29 -28 -4 3 -8 14 -8 25 0 23 28 26
37 3z m400 0 c6 -16 -15 -37 -29 -28 -4 3 -8 14 -8 25 0 23 28 26 37 3z m-672
-7 c28 -14 35 -27 35 -67 0 -19 -4 -40 -8 -46 -11 -16 -48 -34 -71 -34 -30 0
-31 -69 -1 -77 39 -10 19 -23 -35 -23 -54 0 -74 13 -35 23 18 5 20 14 20 95 0
99 -5 122 -26 122 -8 0 -14 4 -14 9 0 12 111 11 135 -2z m179 -53 c18 -7 21
-39 5 -49 -6 -4 -16 1 -23 11 -23 31 -36 6 -36 -67 0 -55 3 -69 15 -69 8 0 15
-4 15 -10 0 -5 -22 -10 -50 -10 -48 0 -66 12 -35 24 23 9 21 141 -2 155 -15 9
-12 10 15 11 18 0 32 -5 32 -12 0 -8 6 -6 17 5 19 19 24 20 47 11z m96 -91 l0
-84 28 3 c26 3 27 5 30 76 2 58 0 73 -13 78 -8 3 -13 10 -10 14 6 10 55 0 55
-11 0 -4 13 -1 29 9 28 16 31 15 50 -2 19 -17 21 -17 36 -2 21 20 49 21 69 0
12 -11 16 -35 16 -85 0 -53 4 -71 15 -75 25 -10 17 -24 -15 -24 l-29 0 -3 83
c-3 76 -5 82 -26 85 -26 4 -29 -4 -36 -76 -3 -37 0 -56 10 -66 20 -21 17 -26
-16 -26 l-29 0 -3 83 c-3 80 -4 82 -28 82 -24 0 -25 -3 -28 -72 -2 -46 1 -73
8 -73 5 0 10 -4 10 -9 0 -6 -42 -10 -95 -10 -55 0 -95 4 -95 9 0 6 7 10 15 10
22 0 22 148 0 156 -25 10 -8 21 25 16 l30 -4 0 -85z m393 27 c-7 -69 2 -110
22 -110 8 0 15 -4 15 -10 0 -5 -22 -10 -50 -10 -27 0 -50 5 -50 10 0 6 7 10
15 10 22 0 22 145 -1 154 -25 10 -7 23 25 18 l29 -4 -5 -58z m162 45 c15 -14
25 -36 25 -52 0 -28 -1 -28 -55 -25 -58 4 -62 1 -45 -42 7 -20 17 -26 38 -26
15 0 33 5 39 11 7 7 13 7 17 1 9 -14 -33 -42 -62 -42 -12 0 -34 12 -49 26 -23
23 -25 31 -21 81 7 87 62 120 113 68z m93 4 c2 -4 16 0 32 9 23 14 31 14 44 3
9 -7 16 -19 16 -27 0 -21 -22 -28 -35 -11 -28 39 -45 13 -45 -70 0 -46 3 -56
20 -60 39 -10 19 -23 -35 -23 -30 0 -55 5 -55 10 0 6 6 10 14 10 19 0 26 22
26 85 0 42 -4 57 -20 68 -11 8 -17 17 -13 21 8 7 47 -3 51 -15z m-718 -98 c0
-14 -4 -32 -9 -40 -15 -23 -41 5 -41 44 0 29 2 32 25 27 19 -3 25 -10 25 -31z
m-24 -116 c4 -8 1 -22 -5 -29 -8 -10 -9 -16 -1 -21 5 -3 10 -11 10 -17 0 -6
-8 -4 -18 5 -23 21 -29 21 -35 0 -3 -10 -5 3 -6 30 -1 44 1 47 24 47 14 0 28
-7 31 -15z m164 -30 c0 -25 -4 -45 -10 -45 -5 0 -10 20 -10 45 0 25 5 45 10
45 6 0 10 -20 10 -45z m130 35 c0 -5 -9 -10 -20 -10 -25 0 -27 -20 -2 -21 16
-1 16 -2 0 -6 -24 -6 -23 -23 2 -23 11 0 20 -4 20 -10 0 -5 -11 -10 -25 -10
-23 0 -25 4 -25 45 0 41 2 45 25 45 14 0 25 -4 25 -10z m95 -43 c0 -39 -18
-46 -23 -9 -2 15 -10 22 -25 22 -20 0 -20 -1 -2 -13 10 -8 15 -19 11 -25 -9
-14 -46 -16 -46 -2 0 5 7 7 15 4 20 -8 19 6 -2 21 -20 15 -7 39 18 32 10 -3
22 -1 25 4 12 21 29 1 29 -34z m100 0 c0 -48 -19 -42 -23 7 -2 28 0 37 10 34
7 -3 13 -20 13 -41z m-417 10 c2 -12 -3 -17 -17 -17 -12 0 -21 -5 -21 -11 0
-6 9 -8 21 -4 15 5 19 4 15 -4 -12 -18 -44 -12 -51 9 -8 25 12 52 34 48 9 -2
17 -11 19 -21z m60 -15 c3 -29 1 -32 -22 -32 -35 0 -38 39 -3 41 l22 2 -23 4
c-12 2 -20 9 -16 14 13 21 39 4 42 -29z m320 0 c3 -29 1 -32 -22 -32 -35 0
-38 39 -3 41 l22 2 -23 4 c-12 2 -20 9 -16 14 13 21 39 4 42 -29z m100 26 c19
-19 14 -28 -14 -28 -15 0 -23 -4 -19 -10 4 -6 16 -8 28 -4 17 5 19 3 11 -6
-16 -17 -48 -9 -52 13 -8 40 20 61 46 35z"/>
<path d="M1910 311 c0 -54 2 -61 19 -61 33 0 54 29 47 68 -6 41 -4 39 -39 47
l-27 7 0 -61z"/>
<path d="M2743 298 c-6 -7 -13 -21 -16 -30 -5 -15 0 -18 28 -18 27 0 35 4 35
18 0 18 -18 42 -31 42 -4 0 -11 -6 -16 -12z"/>
<path d="M1620 393 c-26 -19 -27 -37 -1 -23 11 5 26 10 33 9 7 0 -3 -8 -22
-17 -27 -12 -31 -16 -16 -20 10 -2 23 1 28 6 5 5 27 7 49 5 34 -5 39 -3 39 13
0 27 -82 47 -110 27z"/>
<path d="M1526 284 c-3 -9 -2 -23 3 -32 6 -10 2 -25 -10 -46 -10 -17 -19 -35
-19 -41 1 -5 10 7 21 28 11 21 26 40 34 43 10 4 11 12 3 35 -11 32 -23 37 -32
13z"/>
<path d="M1567 281 c9 -33 28 -44 47 -26 21 21 20 31 -1 31 -10 1 -26 4 -35 8
-13 6 -15 3 -11 -13z"/>
</g>
</svg>
